<svg
   version="1.1"
   id="svg2"
   width="1333.3333"
   height="1333.3333"
   viewBox="0 0 1333.3333 1333.3333"
   xmlns="http://www.w3.org/2000/svg"
   xmlns:svg="http://www.w3.org/2000/svg">
  <g
     id="g8"
     transform="matrix(1.3333333,0,0,-1.3333333,0,1333.3333)">
    <g
       id="g10"
       transform="scale(0.1)">

      <path
         d="m 2608.27,6503.71 0.02,0.62 c -66.11,90.31 -128.41,181.97 -168.48,287.61 5.96,-77.61 3.11,-156.89 -5.43,-235.54 55.44,10.99 120.98,-20.06 173.89,-52.69"
         style="fill:#979797;fill-opacity:1;fill-rule:nonzero;stroke:none"
         id="path3374" />
      <path
         d="m 2756.08,5813.47 c -0.43,12.44 -0.87,24.88 -1.3,37.32 -53.77,74.33 -141.55,130.42 -222.38,179.3 -0.76,-58.63 -3.29,-122.52 -6.69,-186.23 67.25,-56.71 145.52,-107.26 231.36,-119.27 -3.67,28.63 -0.05,61.83 -0.99,88.88"
         style="fill:#979797;fill-opacity:1;fill-rule:nonzero;stroke:none"
         id="path3376" />
      <path
         d="m 2509.92,4098.96 c -23.22,55.49 -43.54,112.02 -61.47,168.16 -38.33,120.05 -62.91,239.71 -62.82,362.37 -0.77,1.09 -1.34,2.45 -1.63,4.11 -12.31,70.14 -30.15,140.7 -55.17,208.14 -6.17,-62.08 -11.32,-137.9 -15.62,-234.13 -13.07,-292.95 34.01,-457.74 73.24,-572.83 5.33,-15.64 9.21,-32.08 12.07,-49.26 32.72,-30.94 64.05,-63.8 94.16,-98.09 35.35,60.56 30.44,144.44 17.24,211.53"
         style="fill:#fa9142;fill-opacity:1;fill-rule:nonzero;stroke:none"
         id="path3378" />
      <path
         d="m 2480.89,3869.02 c -25.18,28.87 -51.32,56.61 -78.33,83.22 8.85,-104.67 -14.34,-238.28 -26.57,-419.67 -0.39,-5.74 -0.83,-11.26 -1.28,-16.76 15.96,4.69 32.19,7.71 47.38,9.05 1.92,0.18 3.81,0.14 5.73,0.27 -3.46,72.55 -8.06,315.1 87.57,302.99 -7.93,9.68 -15.96,19.24 -24.06,28.72 l -10.44,12.18"
         style="fill:#fa9142;fill-opacity:1;fill-rule:nonzero;stroke:none"
         id="path3380" />
      <path
         d="m 2753.57,5885.66 c -1.29,37.31 -2.59,74.63 -3.88,111.94 -47.15,82.63 -136.35,145.91 -222.27,197.05 3.94,-38.38 5.42,-86.65 5.2,-140.28 77.42,-46.85 162.29,-100.2 220.95,-168.71"
         style="fill:#979797;fill-opacity:1;fill-rule:nonzero;stroke:none"
         id="path3382" />
      <path
         d="m 2415.03,6424.93 c -1.12,-6.22 1.76,-12.43 7.4,-15.29 21.02,-10.64 38.72,-71.02 84.34,-133.24 6.95,-9.47 12.24,-26.3 16.18,-48.77 0.74,-4.23 3.21,-7.98 6.9,-10.16 80.46,-47.49 165.09,-105.63 218.43,-179.35 -0.2,5.76 -0.4,11.53 -0.6,17.29 -1.15,33.3 -2.31,66.6 -3.46,99.9 l -0.05,1.38 c -1.36,39.25 -2.73,78.5 -4.09,117.75 -0.57,16.5 -1.14,33.01 -1.72,49.52 l -1.31,1.83 c -4.83,7.38 -9.76,14.71 -14.78,21.97 -24.56,35.52 -50.13,70.15 -75.67,104.64 -0.96,1.3 -2.06,2.39 -3.4,3.31 -51.32,35.54 -134.63,90.91 -201.3,80.54 -6.15,-0.96 -10.66,-6.27 -11.45,-12.44 -4.27,-33.21 -9.52,-66.2 -15.42,-98.88"
         style="fill:#979797;fill-opacity:1;fill-rule:nonzero;stroke:none"
         id="path3384" />
      <path
         d="m 2527.66,5404.94 c -10.18,7.85 -20.88,15.44 -31.63,22.03 -17.1,-141.25 -83.05,-229.55 -114.81,-322.39 -20.02,-58.52 -35.5,-118.9 -47.52,-218.42 23.52,-56.23 41.82,-115.01 55.68,-174.47 1.94,20.71 4.6,41.51 8.11,62.45 22.46,133.81 68.93,284.9 173.12,379.2 -5.47,30.73 -10.33,61.56 -14.07,92.52 l 0.07,0.77 c -18.97,50.62 -28.32,101.55 -28.95,158.31"
         style="fill:#fa9142;fill-opacity:1;fill-rule:nonzero;stroke:none"
         id="path3386" />
      <path
         d="m 2642.54,6489.04 c 4.17,-5.38 8.32,-10.77 12.5,-16.15 l 1.27,-0.87 c -1.27,0.87 4.39,-6.44 4.39,-6.44 27.11,-34.96 53.95,-70.13 79.02,-106.58 5.97,46.93 29.21,87.08 61.53,120.32 -51.46,-8.47 -107.82,-1.19 -158.71,9.72"
         style="fill:#979797;fill-opacity:1;fill-rule:nonzero;stroke:none"
         id="path3388" />
      <path
         d="m 3048.21,6886.84 c -26.85,84.76 -55.23,169.08 -84.73,252.96 -51.89,46.86 -157.09,44.84 -221.82,48.23 -48.11,2.51 -96.38,3.69 -144.57,2.67 -36.18,-116.87 -88.96,-228.03 -158.3,-328.13 24.56,-90.45 66.62,-179.98 118.52,-257.59 20.58,-30.78 42.67,-60.48 65.19,-89.89 66.68,-16.15 147.73,-29.45 213.53,-5.04 16.6,12.72 34.35,24.16 52.67,34.13 38.75,21.1 79.53,38.56 121.59,51.94 9.97,3.17 24.82,10.21 37.92,12.59 0,92.71 0,185.42 0,278.13"
         style="fill:#979797;fill-opacity:1;fill-rule:nonzero;stroke:none"
         id="path3390" />
      <path
         d="m 3138.47,7148.87 0.5,1.29 c 2.02,5.2 3.94,10.43 5.97,15.62 38.09,96.95 77.35,207.88 141.56,294.14 -2.33,31.66 -3.81,65.1 -3.87,97.08 -66.5,-58.14 -150.52,-107.92 -231.2,-92.6 -66.87,12.69 -129.9,50.35 -185.97,95.75 0.8,-19.62 1.06,-41.03 0.53,-64.86 -0.28,-12.49 -1.29,-24.36 -2.63,-35.94 45.72,-95.65 79.7,-198.69 114.47,-297.38 1.35,-3.83 2.67,-7.69 4.02,-11.53 l 0.8,-2.27 c 26.25,-74.83 51.7,-149.97 75.98,-225.46 24.25,76.16 50.96,151.67 79.84,226.16"
         style="fill:#979797;fill-opacity:1;fill-rule:nonzero;stroke:none"
         id="path3392" />
      <path
         d="m 2528.69,4111.67 c 0.23,-1.12 0.44,-2.3 0.67,-3.44 27.55,-65.35 58.97,-129.02 95.13,-189.53 6.56,-10.97 14.39,-23.33 23.23,-36.16 17.04,220.51 64.45,441.68 102.46,659.06 -32.09,91.81 -67.96,182.42 -95.78,275.77 -30.49,102.33 -59.18,206.2 -79.33,311.43 -89.71,-88.04 -134.42,-223.3 -154.6,-343.57 -27.12,-161.58 -11.88,-314.69 35.24,-470.91 20.08,-66.58 43.26,-132.92 70.17,-197.69 1.27,-1.21 2.34,-2.72 2.81,-4.96"
         style="fill:#fa9142;fill-opacity:1;fill-rule:nonzero;stroke:none"
         id="path3394" />
      <path
         d="m 3048.21,6586.43 c -44.2,-3.96 -98.35,-33.73 -131.65,-51.09 -81.87,-42.71 -161.64,-107.43 -157.38,-208.37 0.07,-1.58 -0.21,-2.95 -0.66,-4.16 3.24,-15.18 1.89,-31.21 2.49,-48.37 1.1,-31.68 2.19,-63.35 3.29,-95.03 74.18,68.49 181.84,155.35 283.91,158.34 0,82.89 0,165.79 0,248.68"
         style="fill:#979797;fill-opacity:1;fill-rule:nonzero;stroke:none"
         id="path3396" />
      <path
         d="m 2760.92,5705.07 c -52.22,5.28 -103.21,22.82 -152.65,53.35 -28.98,17.89 -57.11,37.76 -84.01,59.21 -8.46,-148.77 -20.89,-292.25 -25.33,-359.93 -0.17,-2.56 -0.49,-4.96 -0.69,-7.48 30.67,-17.2 59.72,-42.98 80.27,-60.37 149.13,-126.14 269.46,-288.98 378.89,-453.21 -29.34,139.54 -68.57,277.68 -104.17,415.47 -30.42,117.75 -61.14,235.41 -92.31,352.96"
         style="fill:#979797;fill-opacity:1;fill-rule:nonzero;stroke:none"
         id="path3398" />
      <path
         d="m 2849.67,5727.44 c 59.05,12.31 115.25,35.29 166.07,67.9 11.04,7.08 22.03,14.31 32.47,22.27 0,64.28 0,128.57 0,192.86 -52.23,-2.86 -107.3,-24.51 -155.34,-39.74 -40.2,-12.75 -80.22,-26.15 -119.92,-40.37 0.84,-24.43 1.69,-48.86 2.54,-73.28 0.71,-1.92 0.73,-3.76 0.19,-5.41 0.44,-12.74 0.88,-25.47 1.32,-38.2 0.85,-24.54 -0.95,-67.13 1.89,-91.08 23.1,-1.4 46.71,0.04 70.78,5.05"
         style="fill:#979797;fill-opacity:1;fill-rule:nonzero;stroke:none"
         id="path3400" />
      <path
         d="m 3048.21,6122.82 c 0,64.27 0,128.55 0,192.82 -105.03,-8.36 -209.55,-94.85 -282.94,-163.95 1.11,-32.09 2.22,-64.19 3.34,-96.28 1.19,-34.39 2.38,-68.79 3.58,-103.19 41.85,14.95 84.01,29.18 126.48,42.24 45.53,13.99 99.41,35.68 149.54,37.52 0,30.28 0,60.56 0,90.84"
         style="fill:#979797;fill-opacity:1;fill-rule:nonzero;stroke:none"
         id="path3402" />
      <path
         d="m 3504.41,3658.62 c -14.74,-23.79 -29.27,-47.76 -43.56,-71.9 -5.94,-31.56 -6.55,-77.65 20.67,-99.25 40.79,25.46 85.63,43.77 132.23,53.66 21.53,57.8 81.03,241.97 -17.66,257.47 -32.17,-45.99 -62.6,-93 -91.68,-139.98"
         style="fill:#979797;fill-opacity:1;fill-rule:nonzero;stroke:none"
         id="path3404" />
      <path
         d="m 2391.64,2537.44 c -31.18,126.32 -48.06,256.08 -58.75,385.61 -9.2,111.5 -14.88,223.75 -16.21,335.94 -19.14,-59.4 -37.27,-124.07 -45.32,-228.62 -17.37,-225.8 54.62,-526.79 79.93,-764.79 52.36,-7.54 104.72,-15.08 157.08,-22.62 0.06,9.95 0.16,19.99 0.34,30.16 -62.92,73.05 -94.43,172.66 -117.07,264.32"
         style="fill:#979797;fill-opacity:1;fill-rule:nonzero;stroke:none"
         id="path3406" />
      <path
         d="m 3471.88,3869.23 c 1.72,186.38 -51.8,379.05 -114.11,555.18 -40.69,-128.96 -78.65,-258.61 -111.69,-389.62 1.29,-8.79 2.48,-16.7 3.54,-23.55 11.11,-71.61 25.13,-160.5 37.95,-241.28 73.93,-29.85 136.25,31.11 184.31,99.27"
         style="fill:#fa9142;fill-opacity:1;fill-rule:nonzero;stroke:none"
         id="path3408" />
      <path
         d="m 3631.49,3847.71 -5.13,-6.85 c -5.85,-7.94 -11.61,-15.95 -17.34,-23.97 101.07,-27.88 54.6,-197.84 28.48,-271.51 42.27,6.29 85.59,5.6 128.28,-2.84 -6.29,135.45 1.02,269.72 0,343.15 -0.73,52.51 3.47,92.5 11.1,131.48 -52.74,-52.19 -100.82,-109.53 -145.39,-169.46"
         style="fill:#fa9142;fill-opacity:1;fill-rule:nonzero;stroke:none"
         id="path3410" />
      <path
         d="m 3816.43,4869.15 c -26.57,-72.02 -44.6,-148.07 -51.71,-223.72 1.08,-89.51 -9.7,-179.06 -30.5,-262.98 -30.44,-122.86 -79.45,-238.51 -139.23,-348.89 3.34,-49.03 6.57,-100.28 21.7,-147.39 1.74,-5.43 3.57,-10.95 5.92,-16.21 49.34,65.63 102.9,128.06 162.39,183.87 10.42,42.55 24.34,88.06 40.06,150.97 31.7,126.8 14.42,463.89 -8.63,664.35"
         style="fill:#fa9142;fill-opacity:1;fill-rule:nonzero;stroke:none"
         id="path3412" />
      <path
         d="m 3403.01,5734.69 c 72.58,15.25 140.7,56.54 200.52,105.03 1.34,64.83 4.15,128.69 7.39,185.2 -24.82,-14.28 -49.26,-29.29 -73.12,-45.01 -50.21,-33.07 -116,-72.01 -143.76,-128.11 -0.09,-21.32 -0.18,-42.63 -0.27,-63.95 -0.07,-16.77 2.38,-36.36 1,-54.47 2.74,0.46 5.54,0.74 8.24,1.31"
         style="fill:#979797;fill-opacity:1;fill-rule:nonzero;stroke:none"
         id="path3414" />
      <path
         d="m 3463.37,3475.55 c -18.21,17.61 -25.29,43.81 -26.33,70.28 -17,-29.66 -33.46,-59.64 -49.32,-89.89 7.82,-8.14 15.51,-16.25 22.67,-24.56 16.53,16.16 34.18,31.04 52.98,44.17"
         style="fill:#979797;fill-opacity:1;fill-rule:nonzero;stroke:none"
         id="path3416" />
      <path
         d="m 4189.51,6129.92 -2.01,2.24 c -12.56,-27.35 -22.99,-55.4 -30.76,-83.34 -17.55,-63.21 -26.07,-132.79 -5.58,-196.57 18.75,-58.39 54.17,-111.91 86.26,-163.82 93.06,-150.55 194.45,-296.4 299.72,-438.68 18.31,11.79 36.61,23.59 54.92,35.38 -39.87,68.37 -61.64,168.18 -114.83,281.55 -66.26,141.25 -39.23,148.22 -89.8,282.49 -50.57,134.27 -164.79,249.36 -197.92,280.75"
         style="fill:#979797;fill-opacity:1;fill-rule:nonzero;stroke:none"
         id="path3418" />
      <path
         d="m 3859.94,2656.33 c 29.64,242.38 10.46,434.2 -52.31,617.29 -0.4,1.15 -0.75,2.35 -1.13,3.5 -2.11,-151.14 -3.95,-302.6 -16.7,-452.41 -14.6,-171.54 -55.36,-368.89 -156.89,-514.92 0.58,-21.34 0.83,-45.51 0.85,-71.66 52.59,8.61 105.19,17.21 157.78,25.82 10.33,96.49 47.77,223.7 68.4,392.38"
         style="fill:#979797;fill-opacity:1;fill-rule:nonzero;stroke:none"
         id="path3420" />
      <path
         d="m 3610.92,2441.45 c 11.23,-35.25 18.84,-67.9 20.53,-95.75 96.74,154.44 134.91,359.75 140.68,534.09 5.26,159.36 9.04,318.77 13.69,478.15 -9.87,51.16 -15.67,106.84 -18.91,162.91 -95.86,20.43 -194.68,-0.9 -276.33,-52.59 -1.59,-2.22 -3.89,-3.78 -6.61,-4.26 -21.87,-14.44 -42.24,-31.3 -61.1,-49.9 10.02,-24.03 11.58,-89.96 10.84,-169.74 156.32,-225.44 233.1,-530.5 177.21,-802.91"
         style="fill:#979797;fill-opacity:1;fill-rule:nonzero;stroke:none"
         id="path3422" />
      <path
         d="m 2744.21,3411.14 c 5.91,19.53 12.83,36.8 20.71,52.51 -29.98,49.63 -61.02,99.78 -93.55,149.49 11.05,-50 12.89,-105.74 -14.19,-147.07 30.21,-16.49 59.28,-35.27 87.03,-54.93"
         style="fill:#979797;fill-opacity:1;fill-rule:nonzero;stroke:none"
         id="path3424" />
      <path
         d="m 2634.07,3455.59 c -66.69,34.74 -138.93,57.08 -211.98,48.35 -15.95,-1.91 -33.02,-5.45 -49.49,-10.96 -7.51,-72.16 -20.73,-123.49 -35.33,-170.43 -0.45,-121.89 4.53,-244.08 13.83,-365.31 10.11,-131.87 24.83,-264.49 55.64,-393.33 21.01,-87.85 47.43,-184.33 102.78,-258.42 1.23,33.65 8.08,70.51 18.52,108.85 l -0.12,0.31 c -38.46,218.15 -21.59,445.08 71.86,647.79 31.68,68.73 70.81,139.45 120.73,198.56 3.27,51.75 9.24,93.77 17.93,128.93 -30.25,21.91 -62.61,43.24 -96.51,61.51 l -7.86,4.15"
         style="fill:#979797;fill-opacity:1;fill-rule:nonzero;stroke:none"
         id="path3426" />
      <path
         d="m 3509.32,5179.42 c 19.98,45.17 49.43,100.49 63.92,154.7 0,0 -0.19,-4.58 0,0 0.15,3.67 4.95,21.64 4.95,21.64 1.62,8.7 2.71,17.32 3.27,25.84 -35.56,-26.43 -69.36,-55.36 -101.22,-84.33 -149.25,-135.68 -268.49,-299.08 -361.14,-477.54 14.25,-30.71 35.2,-149.54 56.46,-288.63 59.43,106.45 117.31,213.8 173.62,321.88 55.98,107.44 111.11,215.61 160.14,326.44"
         style="fill:#fa9142;fill-opacity:1;fill-rule:nonzero;stroke:none"
         id="path3428" />
      <path
         d="m 2538.4,3799.58 c -1.81,-0.13 1.98,-1.04 0,0 -95.09,50.04 -92.55,-202.88 -89.67,-273.5 66.3,0.27 130.09,-20.08 189.83,-50.24 36.71,51.64 14.59,140.65 -4.63,193.25 -0.63,1.72 -0.18,-1.42 0,0 -30.45,44.49 -62.21,88.23 -95.53,130.49"
         style="fill:#979797;fill-opacity:1;fill-rule:nonzero;stroke:none"
         id="path3430" />
      <path
         d="m 2764.1,4500.7 c -38.04,-212.73 -83.13,-428.95 -97.37,-644.26 46.47,-60.16 112.07,-118.82 178.29,-93.42 7.94,63.3 23.58,118.18 41.33,203.09 -25.25,152.66 -55.31,305.25 -97.1,453.65 -7.66,27.21 -16.23,54.13 -25.15,80.94"
         style="fill:#fa9142;fill-opacity:1;fill-rule:nonzero;stroke:none"
         id="path3432" />
      <path
         d="m 2968.41,4882.15 c -113.83,173.83 -237.95,349.63 -394.65,484.34 -6.96,5.98 -15.39,13.35 -24.67,21.14 4.02,-80.97 29.13,-148.27 68.68,-221.12 58.77,-108.26 119.55,-215.16 174.76,-325.33 58.91,-117.57 115.87,-236.17 171.16,-355.51 19.86,148.18 38.81,285.22 48.94,328.37 -13.4,20.73 -26.8,41.48 -40.44,62.35 -1.78,1.17 -3.2,2.99 -3.78,5.76"
         style="fill:#fa9142;fill-opacity:1;fill-rule:nonzero;stroke:none"
         id="path3434" />
      <path
         d="m 2761.4,4856.49 c -55.48,109.2 -119.18,214.19 -174.49,323.39 1.42,-8.78 3.06,-17.53 4.61,-26.29 0.91,-1.69 1.2,-3.55 0.96,-5.45 22.74,-126.31 58.32,-251.2 96.71,-372.84 39.53,-125.23 92.95,-245.88 126.48,-372.89 33,-125.03 59.35,-252.15 81.84,-379.8 3.14,16.86 6.3,34.76 9.46,54.02 12.58,76.65 32.17,225.35 51.54,370.38 -63.27,137.64 -128.5,274.48 -197.11,409.48"
         style="fill:#fa9142;fill-opacity:1;fill-rule:nonzero;stroke:none"
         id="path3436" />
      <path
         d="m 2775.3,7206.73 c 53.24,-4.34 125.26,-6.19 176.58,-33.76 -29.04,83.41 -58.13,169.04 -94.7,250.25 -25.01,-108.98 -101.83,-173.23 -205.64,-211.26 41.32,-0.27 82.69,-1.89 123.76,-5.23"
         style="fill:#979797;fill-opacity:1;fill-rule:nonzero;stroke:none"
         id="path3438" />
      <path
         d="m 2289.22,6081.92 c -17.41,-12 -34.98,-23.73 -52.86,-34.84 -64.43,-40.02 -142.12,-87.52 -220.96,-87.23 -3.6,-74.6 -26.57,-147.27 -60.72,-218.59 -85.09,-177.72 -198.59,-344.77 -320.83,-499.31 24.77,-16.87 49.55,-33.74 74.33,-50.61 25.93,96.18 160.38,265.33 207.45,326.52 52.32,68 188.33,96.78 274.65,258.95 69.47,130.53 84.72,232.2 98.94,305.11"
         style="fill:#979797;fill-opacity:1;fill-rule:nonzero;stroke:none"
         id="path3440" />
      <path
         d="m 2622.26,3061.46 c -87.19,-189.14 -109.8,-397.08 -80.46,-601.72 50.39,152.7 143.17,317.2 158.53,390.15 20.93,99.39 13.08,227.56 18.31,374.04 l 0.08,1.66 c -38.77,-50.57 -70.62,-108.08 -96.46,-164.13"
         style="fill:#979797;fill-opacity:1;fill-rule:nonzero;stroke:none"
         id="path3442" />
      <path
         d="m 1618.76,4896.9 c -63.72,-3.12 -129.98,18.08 -182.71,53.92 -11.09,7.53 -0.64,25.67 10.56,18.06 49.9,-33.91 111.81,-54.01 172.15,-51.06 13.49,0.66 13.43,-20.27 0,-20.92 z m 85.32,271.98 c -50.4,34.31 -100.81,68.63 -151.21,102.95 -25.74,-55.78 -60.8,-69.91 -108.05,-99.24 -50.57,-31.39 -195.69,-184.42 -201.74,-225.86 -0.19,-1.29 -0.28,-2.44 -0.29,-3.45 34.14,27.98 69.31,54.85 106.11,78.61 80.47,51.94 204.61,32.8 260.82,119.36 7.32,11.27 25.44,0.8 18.07,-10.56 -58.1,-89.47 -163.04,-64.55 -243.98,-111.85 l -0.88,-0.54 c -0.47,-10 -4.59,-25.39 -13.1,-47.12 -18.52,-47.34 -140.69,-189.05 -143.35,-250.23 -2.51,-57.54 195.67,206.64 207.87,197.92 12.21,-8.72 -141.26,-245.83 -115.09,-306.03 17.44,-40.11 183.1,267.67 197.05,262.44 13.95,-5.23 -90.72,-248.14 -51.44,-299.06 23.54,-30.52 121.19,273.77 143.86,292.95 22.67,19.19 22.67,-212.74 50.57,-216.22 27.9,-3.49 14.16,124.76 20.93,231.92 6.42,101.81 24.84,130.78 23.54,277.26 -0.02,2.16 0.13,4.44 0.31,6.75"
         style="fill:#979797;fill-opacity:1;fill-rule:nonzero;stroke:none"
         id="path3444" />
      <path
         d="m 2353.39,2244.29 c 0.54,-5.61 1.2,-11.39 1.67,-16.93 20.93,-243.26 -243.25,-447.28 -245.87,-515.28 -1.76,-45.77 87.67,-86.77 164.7,-112.5 20.09,19.29 39.99,38.77 59.39,58.72 35.14,36.13 86.37,78.05 97.56,129.42 19.07,87.55 12.57,183.43 5.31,272.24 -1.1,13.46 19.83,13.35 20.93,0 7.39,-90.37 19.18,-198.1 -8.16,-285.87 -14.98,-48.06 -57.97,-86.51 -92.07,-121.57 -19.81,-20.37 -40,-40.37 -60.4,-60.17 28.4,-8.72 53.44,-15.02 69.08,-18.24 60.16,-12.42 133.4,153.66 143.86,279.21 8.82,105.88 -0.92,226.74 -1.06,368.66 -51.65,7.44 -103.29,14.88 -154.94,22.31"
         style="fill:#979797;fill-opacity:1;fill-rule:nonzero;stroke:none"
         id="path3446" />
      <path
         d="m 2135.04,6591.67 c 47.19,31.66 92.87,68.77 131.54,104.75 147.29,137.03 250.54,308.8 309.87,498.61 -88.73,-10.37 -195.87,-4.32 -313.8,-92.08 -149.97,-111.61 -127.3,-456.87 -127.3,-503.95 0,-2.49 -0.13,-4.92 -0.31,-7.33"
         style="fill:#979797;fill-opacity:1;fill-rule:nonzero;stroke:none"
         id="path3448" />
      <path
         d="m 1998.04,6100.17 c 12.29,-40.4 17.77,-80.16 17.82,-119.38 78.27,0.1 156.76,49.78 219.96,90.73 20.16,13.06 40.11,26.56 59.76,40.49 1.44,6.21 2.94,12.24 4.56,17.91 16.96,59.39 54.57,189.28 84.92,248.84 10.48,51.52 19.51,104.23 26.08,157.36 l 1.47,12.22 c 10.94,94.2 13.74,189.46 2.6,281.52 -39.76,-53.15 -84.25,-102.94 -133.83,-148.24 -46.73,-42.69 -97.83,-84.5 -152.68,-119.25 -11.25,-31.59 -35.71,-63.63 -64.84,-116.83 -40.11,-73.23 -61.04,-181.35 -78.47,-261.56 -2.13,-9.78 -5.17,-19.03 -8.93,-27.96 8.57,-18.42 15.91,-37.2 21.58,-55.85"
         style="fill:#979797;fill-opacity:1;fill-rule:nonzero;stroke:none"
         id="path3450" />
      <path
         d="m 3375.17,6330.46 c -2.12,62.04 -34.44,112.77 -80.2,152.56 -3.84,0.7 -5.9,2.97 -6.72,5.74 -62.43,51.39 -147.2,83.46 -215.42,96.83 -1.2,0.23 -2.47,0.31 -3.69,0.48 0,-82.97 0,-165.93 0,-248.9 112.24,-9.91 219.86,-87.45 305.37,-160.05 0.15,33.43 0.29,66.87 0.43,100.3 0.1,21.91 0.23,53.04 0.23,53.04 -1.04,1.5 0.08,-2.27 0,0"
         style="fill:#979797;fill-opacity:1;fill-rule:nonzero;stroke:none"
         id="path3452" />
      <path
         d="m 4747.83,4963.29 c -34.99,-54.96 -124.02,-63.92 -183.41,-66.39 -13.49,-0.56 -13.44,20.36 0,20.92 50.72,2.11 135.37,8.95 165.35,56.03 7.22,11.34 25.34,0.86 18.06,-10.56 z m 56.49,38.73 -1.29,2.1 c -7.53,6.3 -13.7,14.84 -21.36,20.92 -2.7,2.15 -6.22,0.56 -7.4,1.11 -4.8,-0.01 -9.59,-0.01 -14.38,0.17 -26.33,0.96 -52.86,3.06 -78.79,7.92 -51.91,9.73 -112.45,27.29 -136.17,79.45 -5.54,12.18 12.49,22.83 18.06,10.56 28.86,-63.45 122.28,-73.48 183.62,-76.44 26.83,-1.3 31.61,-1.65 56.71,-11.23 0,0 -0.79,-1.19 0,0 0,0 125.9,-73.11 144.73,-69.75 22.39,3.98 -81.95,108.11 -144.73,155.19 -62.78,47.08 -113.34,54.06 -177.86,118.58 -0.99,0.98 -1.96,1.97 -2.91,2.98 -93.33,-61.45 -69.03,-45.45 -162.36,-106.91 14.6,-32.62 18.72,-44.42 15.3,-142.82 -4.85,-139.68 49.36,-333 68.01,-342.65 25.28,-13.07 -1.75,179.61 19.18,186.59 20.92,6.97 104.63,-266.8 156.94,-279.01 31.97,-7.46 -70.37,245.73 -54.06,261.57 29.65,28.77 133.4,-231.05 190.07,-233.67 32.24,-1.48 -99.53,261.62 -92.42,279.01 15.7,38.36 146.48,-140.38 198.79,-144.74 42.66,-3.55 -129.91,207.58 -142.12,233.74 -6.16,13.22 -12.09,31.31 -15.56,47.33"
         style="fill:#979797;fill-opacity:1;fill-rule:nonzero;stroke:none"
         id="path3454" />
      <path
         d="m 4439.52,5186.86 c 26.69,17.2 53.39,34.4 80.08,51.59 -121.17,163.57 -240.55,331.47 -341.35,508.37 -35.68,62.61 -55.27,125.32 -57.31,189.8 -57.32,61.2 -145.83,100.65 -218.97,138.91 -17.9,9.36 -35.94,18.48 -53.96,27.63 17.53,-91.6 43.5,-217.3 69.47,-287.12 27.9,-74.98 211,-263.31 287.73,-315.62 76.72,-52.31 198.79,-212.74 231.92,-306.9 0.81,-2.32 1.6,-4.49 2.39,-6.66"
         style="fill:#979797;fill-opacity:1;fill-rule:nonzero;stroke:none"
         id="path3456" />
      <path
         d="m 2817.16,7720.24 c 20.5,-8.13 40.06,-47.47 46.7,-132.42 54.75,-47.41 117.34,-88.86 182.36,-101.2 85.27,-16.19 170.57,37.69 236.74,98.84 1.12,39.77 4.94,75.32 12.83,99.28 23.98,72.8 27.07,23.08 66.3,99.58 47.19,92.03 37.49,129.48 28.78,134.71 -8.72,5.23 3.48,92.42 -12.21,184.84 -15.7,92.42 -87.19,226.69 -301.67,231.92 -214.49,5.23 -305.67,-134.31 -301.68,-291.21 4.8,-188.32 -20.92,-77.6 -22.67,-143.86 -1.74,-66.26 48.32,-174.05 64.52,-180.48"
         style="fill:#979797;fill-opacity:1;fill-rule:nonzero;stroke:none"
         id="path3458" />
      <path
         d="m 3789.62,2242.55 c -51.97,-8.51 -103.93,-17.01 -155.89,-25.51 -0.57,-159.48 -8.18,-377.08 -2.22,-460.5 7.84,-109.86 83.7,-162.17 130.78,-180.48 10.93,-4.25 32.16,-1.25 58.2,6.33 -57.07,46.67 -113,102.95 -123.59,175.8 -12.49,85.9 -7.92,176.08 -3.49,262.53 0.69,13.43 21.62,13.5 20.93,0 -4.08,-79.42 -7.11,-160.78 0.92,-240 8.33,-82.2 66.69,-140.56 128.9,-190.66 85.71,30.31 201.61,96.06 200.62,127.25 -1.75,54.93 -216.23,333.93 -247.62,436.81 -7.89,25.88 -9.7,55.2 -7.54,88.43"
         style="fill:#979797;fill-opacity:1;fill-rule:nonzero;stroke:none"
         id="path3460" />
      <path
         d="m 2648.71,3843.08 c -1.21,0.95 -2.17,2.18 -2.73,3.76 l -1.06,1.47 c -40.04,57.18 -74.7,119.08 -105.02,183.25 3.6,-56.68 -3.18,-115.49 -32.91,-160.83 102.06,-119.31 189.89,-254.51 269.61,-385.99 4.03,6.58 8.22,12.95 12.66,19.06 41.85,57.55 44.47,120.32 52.32,224.95 0.35,4.65 0.75,9.22 1.18,13.74 -72.48,-17.07 -150.48,41.29 -194.05,100.59"
         style="fill:#fa9142;fill-opacity:1;fill-rule:nonzero;stroke:none"
         id="path3462" />
      <path
         d="m 3433.25,3207.51 c -2.11,-136.66 -7.89,-299.02 9.93,-362.85 22.54,-80.77 105.77,-233.02 153.81,-362.81 39.77,247.5 -28.84,517.54 -163.74,725.66"
         style="fill:#979797;fill-opacity:1;fill-rule:nonzero;stroke:none"
         id="path3464" />
      <path
         d="m 3136.4,4895.72 c -0.79,58.37 18.66,119.54 33.24,175.26 24.65,94.22 52.62,187.57 81.59,280.55 37.39,120.04 76.29,239.64 116.81,358.67 -102.93,-4.34 -217.8,45.27 -307.24,89.66 -6.69,-5.62 -15.63,-10.23 -20.15,-13.23 -35.64,-23.68 -73.83,-44.64 -114.19,-59.15 -48.62,-17.48 -96.51,-25.6 -143.45,-23.96 71.55,-269.25 152.94,-539.49 205.02,-813.22 12.21,-18.64 24.15,-37.15 36.16,-55.69 17.7,11.77 51.16,6.27 77.66,-2.84 11.16,21.49 22.6,42.85 34.55,63.95"
         style="fill:#979797;fill-opacity:1;fill-rule:nonzero;stroke:none"
         id="path3466" />
      <path
         d="m 3500.21,3691.29 c 34.29,53.84 70.19,107.72 108.5,159.92 -5.02,7.64 -8.21,16.99 -10.8,25.05 -12.78,39.79 -17.98,82.07 -21.38,123.94 -24.41,-43.1 -50.33,-85.44 -77.38,-127.06 -36.36,-55.95 -78.95,-124.97 -153.32,-129.68 -18.54,-1.17 -37.18,0.87 -54.99,5.87 12.99,-81.78 24.3,-152.62 29.4,-184.5 6.23,-38.91 28.22,-67 52.16,-92.76 39.3,74.93 82.51,148.07 127.81,219.22"
         style="fill:#fa9142;fill-opacity:1;fill-rule:nonzero;stroke:none"
         id="path3468" />
      <path
         d="m 1616.6,5253.7 c 110.01,138.83 212.84,288.38 293.98,445.78 61.6,119.51 111.93,248.34 70.82,383.51 -4.92,16.17 -10.8,32.46 -17.53,48.53 -31.68,-52.94 -87.93,-99.53 -137.17,-184.7 -64.52,-111.6 -68.01,-149.96 -87.19,-265.05 -18.53,-111.21 -146.14,-316.83 -178.32,-390.35 18.47,-12.57 36.94,-25.15 55.41,-37.72"
         style="fill:#979797;fill-opacity:1;fill-rule:nonzero;stroke:none"
         id="path3470" />
      <path
         d="m 3549.09,6485.64 c -42.06,-48.72 -88.53,-94.11 -134.35,-140.64 -6.21,-6.31 -12.42,-12.61 -18.66,-18.88 -0.02,-3.28 -0.03,-6.56 -0.04,-9.84 -0.1,-21.95 -0.19,-43.89 -0.29,-65.84 -0.31,-73 -0.62,-146.01 -0.94,-219.01 35.17,47.08 89.2,83.28 136.42,114.11 30.35,19.82 61.37,38.79 93.08,56.46 0.77,7.33 1.43,13.04 1.96,16.85 7.1,51.11 67.36,161.16 101.75,205 -5.04,31.99 -9.56,64.27 -13.28,96.72 -24.27,27.17 -109.71,-12.29 -165.65,-34.93"
         style="fill:#979797;fill-opacity:1;fill-rule:nonzero;stroke:none"
         id="path3472" />
      <path
         d="m 3594.06,5331.99 c -3.39,-59.64 -12.06,-119.06 -23.82,-177.95 61.09,-40.73 102.04,-117.11 129.57,-181.62 30.78,-72.12 49.79,-150.07 58.78,-229.7 12.13,57.98 29.93,114.99 52.5,169.54 -0.57,4.29 -1.14,8.62 -1.72,12.72 -25.42,181.33 -103.5,346.15 -167.11,497.75 -13.38,-8.16 -26.56,-16.77 -39.5,-25.81 0.49,-21.16 -2.87,-43.01 -8.7,-64.93"
         style="fill:#fa9142;fill-opacity:1;fill-rule:nonzero;stroke:none"
         id="path3474" />
      <path
         d="m 3533.62,7197.89 c -52.47,-0.27 -105.08,-2.52 -157.35,-6.82 -61.72,-5.08 -170.98,-3.82 -219.19,-51.4 -1.64,-4.37 -3.28,-8.78 -4.91,-13.09 -29.87,-79.07 -58.08,-158.94 -83.03,-239.73 0,-30.34 0,-60.69 0,-91.03 0,-62.78 0,-125.55 0,-188.32 76.17,-15.92 167.56,-49.66 234.39,-104.83 74.15,-11.32 161.42,-26 233.22,0.03 39.06,45.39 74.02,93.86 99.71,149.06 31.39,67.44 57.63,137.93 77.78,209.62 -19.6,29.45 -37.87,59.1 -54.84,88.16 -46.48,79.6 -89.14,162.84 -125.78,248.35"
         style="fill:#979797;fill-opacity:1;fill-rule:nonzero;stroke:none"
         id="path3476" />
      <path
         d="m 3654.53,6641.2 c -21.28,-44.15 -47.75,-84.05 -77.29,-121.54 39.92,16.75 99.25,38.35 134.7,26.9 -7.3,72.48 -10.38,145.52 -6.59,217.45 -14.84,-41.89 -31.68,-83.11 -50.82,-122.81"
         style="fill:#979797;fill-opacity:1;fill-rule:nonzero;stroke:none"
         id="path3478" />
      <path
         d="m 3289.73,7422.06 c -0.2,1.97 -0.37,4.02 -0.56,6.02 -51.66,-75.64 -87.21,-168.04 -118.98,-253.27 52.81,28.7 131.01,30.6 184.12,35.31 56.72,5.02 113.73,7.99 170.69,8.56 -0.43,1.02 -0.83,2.05 -1.25,3.07 -29.02,5.47 -54.79,10.91 -75.34,17.21 -130.78,40.11 -149.96,94.16 -158.68,183.1"
         style="fill:#979797;fill-opacity:1;fill-rule:nonzero;stroke:none"
         id="path3480" />
      <path
         d="m 3394.64,5991.77 c -0.14,-33.53 -0.28,-67.07 -0.43,-100.6 29.99,38.54 75.83,68.53 114.19,94.28 33.82,22.71 68.49,44.29 104,64.3 3.2,51.78 6.65,95.93 9.46,126.91 -23.75,-13.51 -47.13,-27.68 -69.93,-42.57 -56.76,-37.06 -124.93,-80.15 -157.29,-142.32"
         style="fill:#979797;fill-opacity:1;fill-rule:nonzero;stroke:none"
         id="path3482" />
      <path
         d="m 3399.94,6359.79 c 36.59,37.28 74.2,73.97 109.58,112.36 l -0.4,-0.08 c -57.5,-9.42 -119.72,-2.87 -178.61,5.61 33.01,-34.35 56.45,-75.58 63.43,-124.3 1.84,2.05 3.8,4.17 6,6.41"
         style="fill:#979797;fill-opacity:1;fill-rule:nonzero;stroke:none"
         id="path3484" />
      <path
         d="m 3189.82,5065.42 c -10.7,-41.39 -24.51,-85.79 -30.09,-129.7 85.23,142.33 189.21,273.71 313.71,383.51 49.74,43.86 103.16,88.05 160.85,122.96 -27.03,72.59 -33.34,221.54 -31.24,370.21 -61.85,-48.29 -132.07,-88.44 -205.94,-99.62 -2.11,-0.32 -4.27,-0.43 -6.39,-0.7 -43.78,-128.63 -85.98,-257.84 -126,-387.69 -26.46,-85.85 -52.43,-171.97 -74.9,-258.97"
         style="fill:#979797;fill-opacity:1;fill-rule:nonzero;stroke:none"
         id="path3486" />
      <path
         d="m 4121.35,5965.66 c 2.04,40.92 10.97,82.63 27.46,125.58 7.84,20.42 16.62,40.63 26.2,60.51 -15.44,36.82 -11.7,97.11 -34.32,173.47 -27.9,94.17 -92.42,139.51 -113.35,223.21 -1.47,5.86 -2.7,12.21 -3.81,18.85 -118.71,54.46 -214.59,157.85 -291.19,267.58 -12.55,-99.85 -9.21,-203.59 2.25,-305.76 0.65,-1.07 -0.56,1.18 0,0 l 1.54,-13.05 c 2.95,-24.86 6.44,-49.58 10.19,-74.14 l 0.27,0.15 c 22.17,8.52 77.66,-216.3 96.41,-312.68 30.28,-15.16 60.36,-30.72 90.17,-46.71 62.5,-33.52 135.03,-67.46 188.18,-117.01"
         style="fill:#979797;fill-opacity:1;fill-rule:nonzero;stroke:none"
         id="path3488" />
      <path
         d="m 3548.42,7216.25 c 2.2,-2.05 3.36,-4.98 3.31,-8 33.57,-78.82 72.39,-155.67 114.73,-229.17 83.1,-144.23 197.4,-311.15 353.9,-387.92 -9.76,90.71 -2.54,234.45 -47.07,403.67 -41.88,159.13 -269.16,194.22 -425.29,222.47 l 0.42,-1.05"
         style="fill:#979797;fill-opacity:1;fill-rule:nonzero;stroke:none"
         id="path3490" />
      <path
         d="m 3528.95,3959.74 c 15.67,25.99 30.9,52.38 45.56,79.11 l 1.07,1.93 c 67.99,124.27 123.21,256.47 149.04,396.01 11.71,63.32 18.3,129.83 18.55,196.74 -0.18,0.91 -0.44,1.76 -0.35,2.85 0.11,1.23 0.29,2.46 0.4,3.69 -0.32,121.92 -22.22,244.87 -74.98,351.94 -24.11,48.93 -56.68,105.9 -102.59,139.76 -12,-56.5 -26.51,-112.49 -41.45,-167.72 -39.28,-145.2 -84.99,-288.53 -131.74,-431.48 -8.2,-25.07 -16.26,-50.18 -24.28,-75.3 63.54,-175.59 120.25,-368.67 124.41,-557.09 13.55,21.21 25.7,41.9 36.36,59.56"
         style="fill:#fa9142;fill-opacity:1;fill-rule:nonzero;stroke:none"
         id="path3492" />
      <path
         d="m 3374,6057.24 c 0.13,30.83 0.26,61.67 0.4,92.5 -78.9,68.36 -196.76,163.99 -305.26,166.52 0,-94.93 0,-189.85 0,-284.78 l 1.61,-0.1 c 102.47,-10.15 205.08,-46.78 302.8,-79.51 0.05,12.28 0.1,24.55 0.15,36.83 l 0.04,7.77 c 0.09,20.25 0.17,40.51 0.26,60.77"
         style="fill:#979797;fill-opacity:1;fill-rule:nonzero;stroke:none"
         id="path3494" />
      <path
         d="m 3373.78,5730.84 c 2.68,22.08 -0.91,63.92 -0.81,86.13 0.16,37.64 0.32,75.28 0.48,112.91 -95.97,32.25 -201.66,74.4 -302.7,80.57 l -1.61,0.05 c 0,-37.13 0,-74.25 0,-111.38 0,-26.7 0,-53.4 0,-80.1 85.62,-42.63 204.52,-95.6 304.64,-88.18"
         style="fill:#979797;fill-opacity:1;fill-rule:nonzero;stroke:none"
         id="path3496" />
      <path
         d="m 3346.41,4457.99 c -0.12,2.32 0.56,4.27 1.87,5.81 6.39,19.98 12.77,39.96 19.29,59.9 46.64,142.65 93.07,285.56 132.28,430.47 17.3,63.96 34.42,128.81 47.92,194.29 -0.13,1.94 0.26,3.85 1.12,5.61 6.76,33.32 12.53,66.8 16.9,100.4 -10.47,-24.03 -21.52,-47.17 -30.83,-68.41 -49.69,-113.35 -105.4,-224.06 -162.57,-333.78 -62.1,-119.19 -126,-237.51 -191.75,-354.76 21.75,-145.08 43.29,-305.58 57.75,-408.82 32.44,124.05 68.93,247.01 108.02,369.29"
         style="fill:#fa9142;fill-opacity:1;fill-rule:nonzero;stroke:none"
         id="path3498" />
      <path
         d="m 6349.23,6839.18 c -13.13,-5.45 -26.25,-10.56 -39.26,-15.36 -20.81,-68.72 -62.36,-129.11 -115.2,-181.28 -10.06,-87.91 1.36,-183.1 38.67,-265.2 37.29,89.94 71.58,172.01 98.68,187.62 12.81,59.49 22.95,121.74 23.86,182.62 l 0.07,9.62 c -0.04,27.82 -2.14,55.26 -6.82,81.98"
         style="fill:#979797;fill-opacity:1;fill-rule:nonzero;stroke:none"
         id="path3500" />
      <path
         d="m 6368.9,6847.6 c 5.39,-29.36 7.76,-59.6 7.77,-90.26 71.51,-45.21 178.53,-35.55 258.41,-28.92 54.86,4.55 109.73,11.39 163.88,21.56 -35,41.52 -70.73,82.3 -108,121.41 -36.02,37.81 -71.86,76.96 -90.43,126.77 -4.27,11.46 -7.78,22.9 -10.97,34.26 -42.65,-87.13 -129.94,-144.63 -220.66,-184.82"
         style="fill:#979797;fill-opacity:1;fill-rule:nonzero;stroke:none"
         id="path3502" />
      <path
         d="m 6390.33,6403.06 c 43.25,-49.27 102.56,-90.97 163.9,-110.27 186.34,-58.64 330.45,92.91 423.39,236.2 -54.08,67.53 -107.7,135.98 -163.17,202.61 -62.88,-12.37 -127.18,-20.78 -191.07,-24.98 -76.91,-5.05 -175.65,-12.55 -247.15,26.56 -2.23,-59.78 -12.41,-120.49 -25,-178.51 11.58,-23.94 25.34,-79.44 39.1,-151.61"
         style="fill:#979797;fill-opacity:1;fill-rule:nonzero;stroke:none"
         id="path3504" />
      <path
         d="m 6886.97,5490.06 c -22.93,140.48 -118.6,265.22 -217.37,368.8 l -3.9,4.09 c -15.67,16.32 -31.38,32.13 -46.88,47.36 -56.82,55.87 -116.53,109.88 -179.54,159.17 9.31,-83.36 16.18,-164.25 18.88,-230.77 4.7,-115.99 -7.58,-222.09 -28.14,-325.01 73.93,26.65 154.38,41.74 231,41.51 86.88,-0.27 162.9,-23.18 225.95,-65.15"
         style="fill:#979797;fill-opacity:1;fill-rule:nonzero;stroke:none"
         id="path3506" />
      <path
         d="m 6651.13,5907.55 c 6.44,-6.58 12.89,-13.26 19.35,-20 48.86,159.52 110.98,325.65 196.61,473.69 -82.9,-76.78 -185.23,-126.74 -302.36,-93.44 -61.28,17.43 -120.6,52.41 -167.51,97.76 14.1,-79.54 27.8,-173.99 38.74,-267.11 76.3,-57.96 148.49,-122.69 215.17,-190.9"
         style="fill:#979797;fill-opacity:1;fill-rule:nonzero;stroke:none"
         id="path3508" />
      <path
         d="m 7023.78,4837.23 c -0.24,145.32 -0.47,290.64 -0.71,435.95 l -0.07,0.76 0.07,0.48 c -0.01,2.84 -0.01,5.69 -0.02,8.54 -67.59,171.71 -214.1,264.05 -398.3,249.95 -32.28,-2.47 -65.06,-7.11 -97.53,-13.89 -2.46,-172.62 -81.35,-348.77 -147,-504.78 -29,-68.91 -59.67,-137.28 -91.87,-204.88 42.19,-56.21 69.69,-128.13 85.16,-193.53 2.96,-12.52 5.5,-25.05 7.74,-37.58 77.81,-3.01 156.64,0.6 233.93,8.91 128.99,13.88 283.61,37.92 381.95,130.94 8.06,22.27 16.92,38.01 26.77,44.98 -0.04,24.72 -0.08,49.44 -0.12,74.15"
         style="fill:#979797;fill-opacity:1;fill-rule:nonzero;stroke:none"
         id="path3510" />
      <path
         d="m 7199,7689.93 c -24.75,42.75 -50.81,85.9 -82.92,123.62 -18.21,21.4 -45.65,55.25 -76.35,64.62 0.07,-42.78 0.14,-85.57 0.21,-128.35 0.16,-101.44 0.33,-202.87 0.5,-304.31 5.82,-65.61 55.68,-98.45 121.18,-112.58 1.4,0.46 -1.39,-0.45 0,0 1.4,0.46 15.37,-2.93 15.37,-2.93 60.65,-10.16 131.85,-6.24 193.15,1.5 -103,54.57 -144.43,168.99 -152.57,242.26 -3.2,28.85 -2.32,56.47 1.13,81.03 -6.45,11.8 -12.99,23.53 -19.7,35.14"
         style="fill:#979797;fill-opacity:1;fill-rule:nonzero;stroke:none"
         id="path3512" />
      <path
         d="m 7163.98,7311.67 c -61.25,-21.24 -120.4,-70.44 -123.1,-138.76 v 0 c 0.37,-224.71 0.74,-449.43 1.11,-674.14 3.4,3.7 6.81,7.4 10.21,11.11 5.32,5.8 10.58,11.66 15.89,17.47 0,0 7.99,10.15 9.55,10.51 1.29,1.09 -1.56,-0.36 0,0 12.72,13.95 25.46,27.87 38.1,41.89 60.33,66.95 120.32,134.3 178.02,203.55 50.99,61.19 100.52,118.44 124.17,195.76 10.25,33.5 17.95,66.61 27.15,98.19 0.08,1.44 0.45,2.75 1.13,3.87 17.87,60.28 41.92,114.65 101.09,154.45 28.59,19.22 58.81,36.36 90.02,51.56 -57.93,9.37 -114.59,10.36 -163.41,14.61 -24.39,2.12 -46.6,6.98 -66.93,13.92 -73.04,-11.25 -166.17,-18.9 -243,-3.99"
         style="fill:#979797;fill-opacity:1;fill-rule:nonzero;stroke:none"
         id="path3514" />
      <path
         d="m 6356.35,5011.11 c 65.7,154.91 145.87,331.38 149.8,503.11 -27.63,-6.62 -54.8,-15.03 -81.19,-24.94 -25.01,-117.37 -60.03,-231.25 -92.35,-351.56 -21.13,-78.65 -36.31,-177.09 -46.52,-283.82 24.29,52.05 47.87,104.42 70.26,157.21"
         style="fill:#979797;fill-opacity:1;fill-rule:nonzero;stroke:none"
         id="path3516" />
      <path
         d="m 6449.69,3480.83 c 15.19,17.46 35.53,27.15 61.18,13.48 6.12,-3.26 11.89,-7.24 17.35,-11.68 -19.27,70.82 -26.58,144.53 -17.74,217.65 4.14,34.26 9.23,68.45 14.82,102.6 l -0.54,-1.67 c -30.58,-90.15 -67.27,-174.47 -143.36,-235.73 -9.64,-7.76 -20.02,-15.09 -30.8,-22.06 25.76,2.47 50.42,-0.93 70.78,-14.69 17.23,-11.64 25.65,-28.45 28.31,-47.9"
         style="fill:#979797;fill-opacity:1;fill-rule:nonzero;stroke:none"
         id="path3518" />
      <path
         d="m 5849.6,6138.71 c 68.23,-82.47 162.15,-94.14 255.6,-69.58 15.27,46.88 55.64,137.22 98.37,236.91 6.4,14.95 12.75,30.1 19.04,45.19 -41.88,81.93 -57.51,179.08 -50.79,269.82 -70.79,-63.27 -157.35,-113.2 -240.2,-150.56 -8.49,-23.2 -17.76,-46.59 -27.98,-70.28 -37.08,-85.97 -65.21,-136.92 -95.79,-193.78 11.19,-24.57 25.28,-47.83 41.75,-67.72"
         style="fill:#979797;fill-opacity:1;fill-rule:nonzero;stroke:none"
         id="path3520" />
      <path
         d="m 6919.54,7322.63 c 39.7,-15.6 77.95,-40.63 100.29,-75.23 -0.07,47.15 -0.15,94.31 -0.23,141.47 -22.56,-33.06 -59.19,-53.55 -100.06,-66.24"
         style="fill:#979797;fill-opacity:1;fill-rule:nonzero;stroke:none"
         id="path3522" />
      <path
         d="m 6674.42,4573.41 c -23.19,-185.39 -47.07,-374.97 -89.68,-558.75 -18.91,-103.17 -40.31,-206.56 -52.86,-310.45 -10.77,-89.08 1.66,-178.22 31.11,-262.07 l 1.34,-2.09 c 1.2,-1.97 1.47,-3.87 1.39,-5.68 10.55,-28.89 23.2,-57.08 37.55,-84.44 10.32,20.25 21.83,42.68 33.59,66.75 3.7,112.4 19.43,225.64 39.94,335.57 47.41,254.02 130.73,503.45 272.3,721.1 10.55,77.17 22.25,152.24 36.62,207.22 -86.62,-66.59 -204.43,-92.66 -311.3,-107.16"
         style="fill:#979797;fill-opacity:1;fill-rule:nonzero;stroke:none"
         id="path3524" />
      <path
         d="m 7378.38,4580.1 c 0,0 18.43,-2.9 16.09,-2.14 85.71,-10.8 173.13,-9.26 250.87,-1.34 2.5,17.05 5.56,34.05 9.37,50.99 13.18,58.7 33.5,123.29 67.45,176.19 -34.09,70.27 -65.8,141.8 -95.39,213.89 -67.99,165.68 -137.46,345.57 -141.26,526.96 -192.67,0.55 -412.56,-56.92 -440.4,-262.72 0.05,-1.1 -0.12,-2.08 -0.45,-3.01 -0.19,-1.53 -0.5,-2.96 -0.67,-4.51 0.28,-170.15 0.56,-340.3 0.84,-510.45 10.16,-6.65 19.44,-23.56 27.76,-47.45 78.02,-79.06 189.55,-119.58 305.79,-136.41"
         style="fill:#979797;fill-opacity:1;fill-rule:nonzero;stroke:none"
         id="path3526" />
      <path
         d="m 6425.51,3438.51 c 0.99,6.35 1.72,12.7 1.8,19.04 1.27,94.01 -101.4,65.03 -167.74,35.29 -0.07,-2.75 -0.16,-5.55 -0.22,-8.22 -3.51,-156.94 -111.58,-223.2 -160.41,-404.56 -18.96,-70.42 -33.71,-212.39 -44.87,-370.52 80.85,15.32 171.04,49.83 210.15,121.21 l 1.34,1.59 c -12.08,113.52 24.78,245.25 63.66,350.55 19.61,53.12 41.31,105.37 62.47,157.87 11.61,28.81 26.76,60.33 32.83,92.12 -0.17,1.42 -0.04,2.96 0.61,4.67 l 0.38,0.96"
         style="fill:#979797;fill-opacity:1;fill-rule:nonzero;stroke:none"
         id="path3528" />
      <path
         d="m 7501.94,3843.29 c -90.43,225 -118.59,482.52 -126.14,716.19 -108.31,15.68 -212.9,51.32 -291.84,117.93 16.84,-67.97 28.49,-163.24 33.98,-245.24 58.33,-102.22 106.08,-211.93 147.93,-321.19 95.16,-248.46 156.33,-510.98 158.43,-777.61 5.4,-13.7 10.33,-25.43 14.68,-34.83 21.31,27.27 38.97,61.04 50.29,91.89 53,144.45 41.01,304.16 12.67,452.86"
         style="fill:#979797;fill-opacity:1;fill-rule:nonzero;stroke:none"
         id="path3530" />
      <path
         d="m 6174.97,6652.22 9.5,9.39 c 44.54,44.99 80.27,96.08 100.59,153.32 -6.1,-2.11 -12.18,-4.18 -18.18,-6.17 -87.16,-28.85 -177.78,-51.09 -268.99,-63.7 -10.51,-83.33 -28.34,-164.38 -56.65,-247.47 81.99,38.55 166.77,90.04 233.73,154.63"
         style="fill:#979797;fill-opacity:1;fill-rule:nonzero;stroke:none"
         id="path3532" />
      <path
         d="m 7933.48,2716.9 c -2.41,23.75 -4.78,46.11 -7.07,66.72 -34.87,313.88 -76.72,422 -122.06,523.14 -16.43,36.66 -29.99,88.51 -40.49,152.73 -12.98,9.93 -26.67,18.91 -40.86,26.41 -21.28,11.26 -50.68,24.87 -75.18,15.64 -35.19,-13.25 -43.48,-56.63 -47.79,-90.03 11.92,-13.56 20.67,-31.92 28.06,-45.79 30.75,-57.73 56.35,-118.5 78.53,-180 37.75,-104.7 85.98,-239.25 78.45,-359.09 28.66,-58.26 86.25,-95.87 148.41,-109.73"
         style="fill:#979797;fill-opacity:1;fill-rule:nonzero;stroke:none"
         id="path3534" />
      <path
         d="m 6741.6,7323.18 c 37.34,-0.02 86.19,0.62 132.67,9.07 l 9.03,2.11 0.74,-0.21 c 63.7,13.26 120.98,42.41 135.11,106.38 l 0.37,0.81 c -0.01,1.24 -0.01,2.47 -0.01,3.7 -0.24,3.02 0.07,9.97 -0.02,13.11 -0.04,1.54 -0.45,-1.19 0,0 -0.23,140.75 -0.46,281.51 -0.69,422.27 -81.61,-6.62 -155.67,-123.42 -197.25,-182.26 -8.27,-11.7 -16.44,-23.49 -24.49,-35.36 0.9,-12.3 1.59,-26.09 2.01,-41.95 2.58,-98.17 -40.83,-244.73 -180.48,-291.18 40.98,-4.23 82.19,-6.47 123.01,-6.49"
         style="fill:#979797;fill-opacity:1;fill-rule:nonzero;stroke:none"
         id="path3536" />
      <path
         d="m 7022.97,5333.22 c -0.62,380.65 -1.25,761.3 -1.87,1141.95 -9.32,11.41 -18.6,22.88 -27.86,34.38 -146.98,-181.17 -239.11,-417.82 -306.24,-639.44 104.23,-111.25 204.86,-243.6 223.3,-396.84 l -0.01,-0.08 c 45.88,-35.98 83.79,-83.09 112.68,-139.97"
         style="fill:#979797;fill-opacity:1;fill-rule:nonzero;stroke:none"
         id="path3538" />
      <path
         d="m 6568.96,7158.41 c 16.59,-27.11 23.99,-56.37 31.07,-85.79 l 2.28,-9.45 c 5.7,-23.62 11.79,-47.21 22.85,-69.73 24.31,-49.53 61.78,-86.14 98.55,-126.26 63.72,-69.5 121.57,-144.99 181.39,-217.84 30.6,-37.27 61.17,-74.57 91.75,-111.86 l 6.87,-8.37 c 5.77,-7.05 11.55,-14.08 17.33,-21.13 -0.05,29.09 -0.1,58.19 -0.15,87.28 -0.32,195.63 -0.64,391.26 -0.96,586.89 -0.65,1.29 -1.08,2.77 -1.16,4.5 -3.08,69.17 -76.62,110.27 -137.17,126.47 -38.01,-7.5 -77.03,-9.9 -110.05,-10.57 -67.42,-1.38 -135.69,2.78 -202.84,12.27 -49.04,-13.5 -86.28,-20.65 -128.65,-28.15 50.97,-35.1 98.27,-78.18 128.89,-128.26"
         style="fill:#979797;fill-opacity:1;fill-rule:nonzero;stroke:none"
         id="path3540" />
      <path
         d="m 6260.63,3523.04 c 50.37,16.58 99.01,46.08 134.79,82.27 65.38,66.12 96.25,155.88 122.48,243.26 20.49,68.25 37.85,137.45 53.04,207.21 1.4,7.96 2.84,15.93 4.19,23.89 0.31,1.8 0.99,3.2 1.85,4.33 33.56,160.79 55.78,324.39 76.16,486.66 -1.15,-0.14 -2.33,-0.31 -3.47,-0.45 -87.52,-10.74 -176.7,-16.16 -264.99,-12.98 27.99,-189.54 -22.65,-380.04 -102.74,-552.91 -1.39,-187.39 -16.36,-362.1 -21.31,-481.28"
         style="fill:#979797;fill-opacity:1;fill-rule:nonzero;stroke:none"
         id="path3542" />
      <path
         d="m 6280.21,4784.47 c -14.26,-192.87 -13.72,-403.87 -3.4,-570.95 3.26,-52.78 4.81,-105.8 5.16,-158.16 75.83,177.04 119.78,375.52 69,564.25 -14.89,55.34 -37.06,115.26 -70.76,164.86"
         style="fill:#979797;fill-opacity:1;fill-rule:nonzero;stroke:none"
         id="path3544" />
      <path
         d="m 7722.37,6849.77 c 45.29,-159.62 163.17,-309.63 327.13,-354.64 -17.34,48.09 -31.47,92.89 -49.85,181.46 -7.7,37.13 -10.33,75.19 -12.33,114.24 -77.6,8.39 -155.43,24.43 -229.35,47.26 -11.74,3.63 -23.65,7.57 -35.6,11.68"
         style="fill:#979797;fill-opacity:1;fill-rule:nonzero;stroke:none"
         id="path3546" />
      <path
         d="m 7396.81,4556.69 c 7.36,-222.89 33.53,-467.47 115.95,-683.7 0,0 8.43,-19.39 9.22,-23.35 1.08,-5.43 -1.05,5.47 0,0 53.6,-132.6 129.33,-253.57 236.06,-351.03 -14.52,107.78 -21.43,244.58 -19.95,400.16 0.33,35.06 0.88,75.2 1.5,118.87 -69.66,168.23 -118.33,355.16 -97.05,537.77 -76.46,-7.6 -161.73,-8.88 -245.73,1.28"
         style="fill:#979797;fill-opacity:1;fill-rule:nonzero;stroke:none"
         id="path3548" />
      <path
         d="m 6763.32,7748.14 c 14.28,-1.78 24.5,-14.18 30.38,-53.47 14.02,19.94 28.29,39.69 43.08,58.99 41.74,54.42 111.56,151.96 190.68,147.6 76.97,-4.25 138.85,-115.75 172.85,-172.36 8.41,-14 16.6,-28.15 24.64,-42.4 9.94,38.41 26.04,63.91 39.7,65.13 39.24,3.49 73.84,187.66 38.97,191.14 -10.73,1.08 31.66,167.2 -38.97,300.6 -51.46,97.2 -376.65,154.33 -465.52,18.31 -96.69,-148 -45.47,-313.31 -59.9,-318.24 -40.96,-13.99 3.16,-192.68 24.09,-195.3"
         style="fill:#979797;fill-opacity:1;fill-rule:nonzero;stroke:none"
         id="path3550" />
      <path
         d="m 6098.94,6044.48 0.33,1.89 c -88.8,-21.05 -181.49,-12.75 -249.23,60.16 -21.1,22.71 -39.55,49.08 -54.23,77.4 -29.51,-55.49 -62.47,-120.86 -108.4,-230.13 -101.14,-240.64 -227.56,-675.28 -248.49,-732.82 -1.14,-3.15 -2.36,-6.1 -3.59,-8.98 45.09,-47.93 104.84,-83.76 169.21,-91.13 6.17,61.62 44.35,130.51 145.65,299.34 115.09,191.81 195.3,247.61 261.52,359.21 66.22,111.61 83.74,233.67 87.23,265.06"
         style="fill:#979797;fill-opacity:1;fill-rule:nonzero;stroke:none"
         id="path3552" />
      <path
         d="m 6543.7,3433.38 c -8.15,12.61 -18.16,24.71 -29.78,34.01 -31.9,25.53 -52.85,1.7 -65.82,-28.52 -8.53,-49.61 -36.44,-104.26 -48.93,-134.88 -80.02,-196.11 -235.34,-562.62 33.66,-672.26 27.97,65.13 54.13,126.54 74.15,176.31 69.38,172.42 43.6,415.89 61.91,468.2 4.74,13.54 12.85,30.82 22.89,50.96 -18.73,34.01 -35,69.53 -48.08,106.18"
         style="fill:#979797;fill-opacity:1;fill-rule:nonzero;stroke:none"
         id="path3554" />
      <path
         d="m 6694.65,3733.84 c -15.47,-87.8 -28.36,-177.35 -34.24,-266.93 12.33,27.72 24.1,56.81 34.03,86.59 39.23,117.7 68.01,285.11 81.09,342.65 13.07,57.54 136.01,290.34 159.55,470.82 2.42,18.58 4.88,37.55 7.38,56.63 -127.83,-210 -205.27,-448.34 -247.81,-689.76"
         style="fill:#979797;fill-opacity:1;fill-rule:nonzero;stroke:none"
         id="path3556" />
      <path
         d="m 5603.64,5100.34 c -67.68,7.41 -130.11,42.83 -178.51,92.19 -21.88,-34.58 -54.69,-51.09 -102.6,-108.87 -59.29,-71.5 -111.15,-227.76 -111.17,-237.15 -0.06,-46.65 83.27,90.24 100.71,86.75 17.43,-3.49 -101.78,-294.39 -88.94,-320.42 16.57,-33.57 113.78,215.36 124.25,206.64 10.46,-8.72 -47.64,-256.47 -41.85,-271.16 23.54,-59.72 88.93,249.36 104.62,240.64 15.7,-8.72 -17.55,-248.95 8.16,-271.6 18.31,-16.13 49.39,252.42 67.7,255.04 18.31,2.61 27.91,-243.53 47.15,-203.53 28.7,59.66 20.87,205.9 41.78,283.3 19.5,72.19 32.69,122.08 28.77,243.7 -0.05,1.49 -0.06,2.98 -0.07,4.47"
         style="fill:#979797;fill-opacity:1;fill-rule:nonzero;stroke:none"
         id="path3558" />
      <path
         d="m 6241.18,6822.36 c 17.86,5.76 36.46,12.01 55.35,18.84 l 1.07,0.39 c 17.63,6.39 35.49,13.32 53.29,20.88 1.56,1.19 3.35,1.91 5.25,2.24 96.68,41.82 189.8,102.87 224.72,200.49 -10.1,38.64 -20.94,75.84 -49.57,109.52 -34.78,40.92 -76.67,76.65 -122,106.53 -28.27,-4.97 -59.96,-10.67 -99.35,-18.75 -136.02,-27.9 -296.23,-153.16 -299.71,-338 -1.03,-54.42 -4.12,-106.8 -9.81,-158.2 81.42,11.49 162.84,30.98 240.76,56.06"
         style="fill:#979797;fill-opacity:1;fill-rule:nonzero;stroke:none"
         id="path3560" />
      <path
         d="m 6196.59,1855.94 c 0.19,-13.5 -20.73,-13.49 -20.92,0 -1.73,124.29 24.61,262.56 91.26,372.46 31.56,91.83 97.75,244.75 157.73,384.29 -93.31,38.66 -138.46,107.55 -154.39,188.72 -47.65,-66.1 -136.94,-98.46 -217.68,-113.18 -0.73,-10.75 -1.44,-21.58 -2.14,-32.44 25.28,-17.03 39.35,-66.77 44.68,-86.84 19.46,-73.21 24.51,-150.55 26.66,-225.95 4.46,-156.42 -5.3,-312.96 -18.49,-468.75 -1.13,-13.35 -22.06,-13.46 -20.92,0 12.54,148.12 22.53,297.21 19.08,445.96 -1.77,75.98 -4.8,154.01 -22.72,228.23 -3.87,16.03 -15.5,57.08 -30.1,78.58 -13.95,-227.45 -21.04,-468.06 -22.94,-568.81 -3.48,-184.83 -52.31,-418.5 55.81,-449.89 108.11,-31.39 205.76,115.09 237.15,240.64 31.17,124.69 -54.58,252.78 -69.42,298.94 -38.57,-92.36 -53.96,-197.01 -52.65,-291.96"
         style="fill:#979797;fill-opacity:1;fill-rule:nonzero;stroke:none"
         id="path3562" />
      <path
         d="m 8635.26,5053.58 c -27.77,49.5 -68.69,78.05 -93.37,123.26 -47.08,-47.83 -114.71,-81.31 -180.59,-103.46 2.14,-16.09 1.93,-32.3 1.93,-70.81 0,-74.98 31.98,-161.26 37.21,-194.39 5.23,-33.13 16.6,-217.72 32.87,-236.01 27.89,-31.39 31.93,190.63 42.39,192.38 10.47,1.74 62.34,-241.5 79.78,-243.26 38.8,-3.92 -11.77,248.49 -1.31,257.21 10.47,8.72 113.74,-234.18 130.79,-236.28 38.79,-4.8 -76.73,250.23 -61.04,262.44 15.7,12.2 113.57,-177.95 137.76,-169.15 38.36,13.95 -99.39,223.2 -102.88,240.64 -3.49,17.44 -25.63,43.98 -12.55,51.82 13.08,7.85 122.41,-69.26 130.25,-53.56 7.85,15.69 -109.46,122.5 -141.24,179.17"
         style="fill:#979797;fill-opacity:1;fill-rule:nonzero;stroke:none"
         id="path3564" />
      <path
         d="m 7240.77,4118.09 c -35.46,89.88 -74.35,180.12 -120.24,265.97 0.09,-2.21 0.19,-4.46 0.26,-6.63 5.23,-149.09 115.09,-431.58 143.86,-544.06 20.77,-81.17 87.85,-301.26 137.34,-440.12 -10.09,248.45 -70.11,493.85 -161.22,724.84"
         style="fill:#979797;fill-opacity:1;fill-rule:nonzero;stroke:none"
         id="path3566" />
      <path
         d="m 8357.43,5094.1 c 64.39,21.78 131.09,54.76 175.07,102.17 -23.63,57.66 -59.56,195.2 -116.96,394.83 -59.75,207.83 -163.34,446.55 -226.25,539.48 -61.69,-84.69 -163.39,-122.45 -269.17,-110.07 14.18,-55.75 18.32,-107.75 16.76,-139.08 -2.62,-52.31 73.24,-170.01 143.86,-256.33 70.62,-86.32 248.49,-417.63 265.92,-487.38 4.92,-19.65 8.34,-32.91 10.77,-43.62"
         style="fill:#979797;fill-opacity:1;fill-rule:nonzero;stroke:none"
         id="path3568" />
      <path
         d="m 7915.95,1842.86 c 1.75,-13.35 -19.2,-13.18 -20.92,0 -31.86,243.52 -16.74,507.13 50.58,746.43 -3.34,37.29 -6.68,72.81 -9.96,105.94 -61.02,12.11 -119.25,44.87 -154.48,96.39 -1.81,-10.95 -3.97,-21.79 -6.94,-32.37 -22.52,-80.22 -88.22,-176.94 -178.71,-187.65 56.35,-132.76 120.81,-265 149.54,-332.03 9.71,-22.65 15.92,-41.32 19.42,-57.07 59.27,-96.6 69.78,-234.76 75.62,-339.64 0.75,-13.49 -20.18,-13.42 -20.93,0 -4.82,86.62 -12.8,202.45 -52.95,292.06 -6.77,-31.21 -30.83,-46.33 -49.06,-76.71 -31.39,-52.31 -48.82,-212.74 38.37,-362.7 87.18,-149.96 181.35,-118.58 219.71,-27.9 29.85,70.56 4.8,517.01 -24.22,859.52 -54.01,-222.14 -64.25,-461.16 -35.07,-684.27"
         style="fill:#979797;fill-opacity:1;fill-rule:nonzero;stroke:none"
         id="path3570" />
      <path
         d="m 7760.15,2799.32 c 10.79,124.13 -27.72,253.3 -69.4,368.9 -10.79,29.92 -89.77,269.81 -141.35,235.38 -22.79,-15.21 -42.27,-36.98 -59.28,-61.62 -8.26,-15.91 -17.73,-31.8 -27.89,-46.29 -3.74,-6.99 -7.34,-14.02 -10.83,-21.04 32.21,-66.86 22.49,-252.62 46.05,-410.81 10.32,-69.31 46.86,-169.8 89.52,-271.94 95.61,6.92 165.71,121.52 173.18,207.42"
         style="fill:#979797;fill-opacity:1;fill-rule:nonzero;stroke:none"
         id="path3572" />
      <path
         d="m 7493.92,7155.39 c -12.62,-23.79 -21.38,-49.36 -28.72,-75.58 l 0.58,-1 c 27.81,-80.31 94.81,-134.54 171.11,-172.38 l 5.4,-2.62 c 21.39,-10.34 43.44,-19.45 65.53,-27.48 l 6.07,-2.15 c 27.01,-9.59 53.96,-17.66 79.68,-24.55 62.92,-16.85 127.65,-30.15 192.7,-37.62 -4.87,100.66 -10.73,207.82 -91.24,322.32 -63.55,90.38 -144.57,128.74 -225.47,146.66 -69.27,-28.13 -145.09,-68.04 -175.64,-125.6"
         style="fill:#979797;fill-opacity:1;fill-rule:nonzero;stroke:none"
         id="path3574" />
      <path
         d="m 7740.36,4071.7 c 3.08,218.69 6.5,504.27 -4.64,704.48 -0.91,1.84 -1.88,3.64 -2.79,5.48 -27.33,-46.25 -44.87,-100.95 -55.95,-150.29 -42.26,-188.2 -4.43,-381.73 63.38,-559.67"
         style="fill:#979797;fill-opacity:1;fill-rule:nonzero;stroke:none"
         id="path3576" />
      <path
         d="m 7732.03,4831.85 c -3.74,48.31 -8.59,89.66 -14.87,121.03 -39.23,196.17 -120.32,423.73 -141.24,578.06 -0.41,3.03 -0.79,6.21 -1.18,9.35 -21.99,2.05 -44.82,3.5 -68.29,4.08 3.83,-178.81 72.85,-357.96 140.5,-521.11 26.71,-64.41 55.01,-128.36 85.08,-191.41"
         style="fill:#979797;fill-opacity:1;fill-rule:nonzero;stroke:none"
         id="path3578" />
      <path
         d="m 7572.34,5561.32 c -13.19,129.49 -10.41,329.17 1.49,448.98 -43.87,-25.5 -89.09,-55.26 -132.58,-88.87 l -12.14,-9.57 c -133.38,-106.09 -247.17,-248.06 -249.66,-410.85 112.5,60.51 265.43,71.47 392.89,60.31"
         style="fill:#979797;fill-opacity:1;fill-rule:nonzero;stroke:none"
         id="path3580" />
      <path
         d="m 7644.56,6880.69 c -4.05,-32.18 -4.35,-65.43 -1.92,-99.13 l 1.5,-15.59 -0.18,-0.19 c 7.27,-76.4 26.99,-154.32 45.52,-225.82 17.04,-32.85 44.68,-94.86 74.24,-161.82 39.98,73.33 69.97,154.44 65.74,233.22 -63.01,70.11 -108.22,157.67 -131.07,247.02 -18.07,6.75 -36.11,14.14 -53.83,22.31"
         style="fill:#979797;fill-opacity:1;fill-rule:nonzero;stroke:none"
         id="path3582" />
      <path
         d="m 7499.46,6292.61 c -110.92,-48.33 -213.06,-0.34 -296.68,74.45 38.16,-63.29 73.23,-128.63 108.06,-192.51 41.99,-77.01 83.02,-154.61 122.4,-232.99 47.14,36.07 96.14,67.76 143.44,94.48 2.14,17.33 4.51,32.29 7.08,44.18 12.23,56.53 36.93,207.58 57.46,326.11 -37.97,-48.49 -86.94,-89.84 -141.76,-113.72"
         style="fill:#979797;fill-opacity:1;fill-rule:nonzero;stroke:none"
         id="path3584" />
      <path
         d="m 7079.5,6508.47 c -12.48,-13.52 -24.97,-27.03 -37.46,-40.5 0.26,-158.73 0.52,-317.45 0.78,-476.18 0.34,-211.65 0.69,-423.3 1.04,-634.94 23.64,57.36 64.12,100.42 114.65,132 -3.4,174.8 116.48,327 257.95,439.6 -39.75,79.26 -81.12,157.77 -123.69,235.54 -52.36,95.64 -104.85,195.06 -168.02,285.38 -16.31,19.81 -31.45,39.8 -45.25,59.1"
         style="fill:#979797;fill-opacity:1;fill-rule:nonzero;stroke:none"
         id="path3586" />
      <path
         d="m 7581.58,3426.08 c 11.27,58.38 43.06,116.44 113.2,94.4 5.6,-1.77 11.14,-3.78 16.62,-6.01 -72.96,73.93 -130.36,159.41 -175.46,252.1 16.98,-119.76 19.72,-245.73 -18.41,-359.51 12.74,12.06 27,20.99 42.77,22.69 7.9,0.85 14.93,-0.66 21.28,-3.67"
         style="fill:#979797;fill-opacity:1;fill-rule:nonzero;stroke:none"
         id="path3588" />
      <path
         d="m 8177.05,6149.22 c -52.6,83.98 -59.33,154.53 -93.7,252.73 -9.42,26.93 -17.63,48.99 -25.12,69.29 -79.98,18.44 -150.09,61 -207.47,117.73 -1.78,-80.04 -34.96,-161.76 -76.46,-234.8 39.41,-89.36 80.27,-181.99 102.42,-221.63 16.05,-28.72 28.23,-59.61 37.34,-90.05 103.47,-14.73 204.76,20.99 262.99,106.73"
         style="fill:#979797;fill-opacity:1;fill-rule:nonzero;stroke:none"
         id="path3590" />
      <path
         d="m 7456.57,7046.76 c -9.77,-39.7 -18.52,-79.87 -34.1,-116.9 -13.14,-31.22 -31.3,-57.66 -51.99,-84.48 -26.03,-33.75 -52.85,-66.93 -80.23,-99.7 43.52,-7.86 87.88,-12.92 131.95,-14.64 62.56,-2.45 152.93,-6.79 200.53,42.46 -3.25,39.69 -3.04,78.92 2.16,116.72 -71.02,35.75 -134.37,85.08 -168.32,156.54"
         style="fill:#979797;fill-opacity:1;fill-rule:nonzero;stroke:none"
         id="path3592" />
      <path
         d="m 7130.05,7320.17 c -38.13,11.96 -69.81,31.33 -89.51,60.95 0.08,-46.33 0.15,-92.67 0.23,-139 20.12,33.86 52.82,60.4 89.28,78.05"
         style="fill:#979797;fill-opacity:1;fill-rule:nonzero;stroke:none"
         id="path3594" />
      <path
         d="m 7433.3,6709.68 c -53.05,2.07 -106.39,7.66 -158.61,17.65 -58.42,-69.04 -119.14,-136.29 -180.37,-202.76 15.76,-19.57 30.84,-39.74 45.37,-60.39 94.46,-114.69 231.53,-224.47 377.1,-139.84 53.17,30.91 99.77,77.87 132.98,130.72 6.79,38.11 12.74,69.75 17.08,89.01 -16.64,64.87 -33.5,134.37 -41.52,203.31 -50.55,-39.95 -132.49,-40.04 -192.03,-37.7"
         style="fill:#979797;fill-opacity:1;fill-rule:nonzero;stroke:none"
         id="path3596" />
    </g>
  </g>
</svg>
